<svg width="57" height="57" viewBox="0 0 57 57" fill="none" xmlns="http://www.w3.org/2000/svg">
<g clip-path="url(#clip0_37_481)">
<path d="M13.1313 0.0947266H43.8688C51.0911 0.0947266 56.9054 5.909 56.9054 13.1312V43.8688C56.9054 51.0911 51.0911 56.9053 43.8688 56.9053H13.1313C5.90902 56.9053 0.0947266 51.0911 0.0947266 43.8688V13.1312C0.0947266 5.909 5.90902 0.0947266 13.1313 0.0947266Z" fill="url(#paint0_linear_37_481)"/>
<path d="M12.5419 16.2502C12.2426 16.2502 11.9606 16.3019 11.6937 16.4081L17.0394 21.9116L22.4443 27.5137L22.5429 27.6321L22.7008 27.7899L22.8586 27.9477L23.1742 28.2831L27.8098 33.037C27.8869 33.085 28.1106 33.2922 28.2854 33.3795C28.5104 33.492 28.7544 33.5957 29.0059 33.6047C29.2773 33.6144 29.5546 33.5367 29.7988 33.4179C29.9817 33.3289 30.063 33.2014 30.2755 33.037L35.641 27.494L41.0656 21.9116L46.2929 16.5264C45.9574 16.3446 45.5857 16.2502 45.1883 16.2502H12.5419ZM10.9047 16.9209C10.3346 17.4611 9.97754 18.2731 9.97754 19.1894V37.2583C9.97754 38.0003 10.2158 38.6742 10.6088 39.1915L11.3584 38.4814L16.9408 33.0567L21.892 28.2633L21.7934 28.145L16.3687 22.5625L10.9441 16.9604L10.9047 16.9209ZM47.0031 17.0985L41.7165 22.5625L36.3116 28.145L36.213 28.2436L41.3615 33.2343L46.9439 38.6589L47.2792 38.9745C47.5798 38.4922 47.7527 37.8981 47.7527 37.2583V19.1894C47.7527 18.3724 47.4695 17.6316 47.0031 17.0985ZM22.5232 28.9143L17.5917 33.7077L11.9896 39.1323L11.2794 39.8227C11.6538 40.0638 12.0799 40.2172 12.5419 40.2172H45.1883C45.7438 40.2172 46.2476 40.0035 46.6677 39.6649L46.3127 39.3098L40.7105 33.8852L35.5621 28.9143L30.9265 33.688C30.6756 33.8543 30.5079 34.0388 30.2629 34.1521C29.8687 34.3344 29.4366 34.4886 29.0022 34.482C28.5667 34.4753 28.1397 34.3048 27.7489 34.1126C27.5527 34.0161 27.4481 33.9202 27.218 33.7274L22.5232 28.9143Z" fill="white"/>
</g>
<defs>
<linearGradient id="paint0_linear_37_481" x1="28.8978" y1="56.6773" x2="28.9531" y2="0.780564" gradientUnits="userSpaceOnUse">
<stop stop-color="#70EFFF"/>
<stop offset="1" stop-color="#5770FF"/>
</linearGradient>
<clipPath id="clip0_37_481">
<rect width="57" height="57" fill="white"/>
</clipPath>
</defs>
</svg>
